<?xml version="1.0" encoding="UTF-8" standalone="no"?>
<!-- Created with Inkscape (http://www.inkscape.org/) -->

<svg
   xmlns:dc="http://purl.org/dc/elements/1.1/"
   xmlns:cc="http://creativecommons.org/ns#"
   xmlns:rdf="http://www.w3.org/1999/02/22-rdf-syntax-ns#"
   xmlns:svg="http://www.w3.org/2000/svg"
   xmlns="http://www.w3.org/2000/svg"
   xmlns:xlink="http://www.w3.org/1999/xlink"
   version="1.1"
   width="867.71875"
   height="867.71875"
   viewBox="0 0 867.71875 867.71875"
   id="svg2888"
   xml:space="preserve"
   style="fill-rule:evenodd"><metadata
   id="metadata2946"><rdf:RDF><cc:Work
       rdf:about=""><dc:format>image/svg+xml</dc:format><dc:type
         rdf:resource="http://purl.org/dc/dcmitype/StillImage" /><dc:title></dc:title></cc:Work></rdf:RDF></metadata>
 <defs
   id="defs2890"><linearGradient
   id="linearGradient10797"><stop
     id="stop10799"
     style="stop-color:#ffffff;stop-opacity:1"
     offset="0" /><stop
     id="stop10801"
     style="stop-color:#ffffff;stop-opacity:0"
     offset="1" /></linearGradient>
   <radialGradient
   cx="444.58899"
   cy="502.32101"
   r="1063.5601"
   fx="444.58899"
   fy="502.32101"
   id="id0"
   gradientUnits="userSpaceOnUse">
    <stop
   id="stop2893"
   style="stop-color:#da251d;stop-opacity:1"
   offset="0" />
    <stop
   id="stop2895"
   style="stop-color:#da251d;stop-opacity:1"
   offset="0.278431" />
    <stop
   id="stop2897"
   style="stop-color:#e7785f;stop-opacity:1"
   offset="0.568627" />
    <stop
   id="stop2899"
   style="stop-color:#da251d;stop-opacity:1"
   offset="1" />
    <stop
   id="stop2901"
   style="stop-color:#da251d;stop-opacity:1"
   offset="1" />
   </radialGradient>
   <linearGradient
   x1="618.76801"
   y1="157.48199"
   x2="741.73199"
   y2="375.85001"
   id="id1"
   gradientUnits="userSpaceOnUse">
    <stop
   id="stop2904"
   style="stop-color:#ffffff;stop-opacity:1"
   offset="0" />
    <stop
   id="stop2906"
   style="stop-color:#dededd;stop-opacity:1"
   offset="0.54117602" />
    <stop
   id="stop2908"
   style="stop-color:#dededd;stop-opacity:1"
   offset="1" />
   </linearGradient>
   <linearGradient
   x1="271.33801"
   y1="846.92401"
   x2="146.524"
   y2="629.026"
   id="id2"
   gradientUnits="userSpaceOnUse">
    <stop
   id="stop2911"
   style="stop-color:#ffffff;stop-opacity:1"
   offset="0" />
    <stop
   id="stop2913"
   style="stop-color:#dededd;stop-opacity:1"
   offset="0.54117602" />
    <stop
   id="stop2915"
   style="stop-color:#dededd;stop-opacity:1"
   offset="1" />
   </linearGradient>
   <linearGradient
   x1="789.19397"
   y1="675.57202"
   x2="571.29602"
   y2="800.388"
   id="id3"
   gradientUnits="userSpaceOnUse">
    <stop
   id="stop2918"
   style="stop-color:#ffffff;stop-opacity:1"
   offset="0" />
    <stop
   id="stop2920"
   style="stop-color:#dededd;stop-opacity:1"
   offset="0.54117602" />
    <stop
   id="stop2922"
   style="stop-color:#dededd;stop-opacity:1"
   offset="1" />
   </linearGradient>
   <linearGradient
   x1="99.9851"
   y1="329.07001"
   x2="317.88599"
   y2="204.252"
   id="id4"
   gradientUnits="userSpaceOnUse">
    <stop
   id="stop2925"
   style="stop-color:#ffffff;stop-opacity:1"
   offset="0" />
    <stop
   id="stop2927"
   style="stop-color:#dededd;stop-opacity:1"
   offset="0.54117602" />
    <stop
   id="stop2929"
   style="stop-color:#dededd;stop-opacity:1"
   offset="1" />
   </linearGradient>
 
  <metadata
   id="CorelCorpID_0Corel-Layer" />
  
  
  
  
  
  
 <linearGradient
   x1="99.9851"
   y1="329.07001"
   x2="317.88599"
   y2="204.252"
   id="linearGradient2950"
   xlink:href="#id4"
   gradientUnits="userSpaceOnUse" /><linearGradient
   x1="789.19397"
   y1="675.57202"
   x2="571.29602"
   y2="800.388"
   id="linearGradient2953"
   xlink:href="#id3"
   gradientUnits="userSpaceOnUse" /><linearGradient
   x1="271.33801"
   y1="846.92401"
   x2="146.524"
   y2="629.026"
   id="linearGradient2956"
   xlink:href="#id2"
   gradientUnits="userSpaceOnUse" /><linearGradient
   x1="618.76801"
   y1="157.48199"
   x2="741.73199"
   y2="375.85001"
   id="linearGradient2959"
   xlink:href="#id1"
   gradientUnits="userSpaceOnUse" /><radialGradient
   cx="444.58899"
   cy="502.32101"
   r="1063.5601"
   fx="444.58899"
   fy="502.32101"
   id="radialGradient10815"
   xlink:href="#id0"
   gradientUnits="userSpaceOnUse"
   gradientTransform="translate(-10.71875,-68.46875)" /></defs>
 <path
   d="M 433.875,7.5 C 198.443,7.5 7.5,198.41174 7.5,433.84375 c 0,235.43 190.94401,426.37503 426.375,426.375 235.432,0 426.34377,-190.94401 426.34375,-426.375 C 860.21875,198.41275 669.30701,7.5 433.875,7.5 z m -0.28125,177.34375 c 138.36606,0 250.65625,112.2902 250.65625,250.65625 0,138.36605 -112.2902,250.6875 -250.65625,250.6875 -138.36603,2e-5 -250.6875,-112.32145 -250.6875,-250.6875 0,-138.36605 112.32145,-250.65625 250.6875,-250.65625 z"
   id="path2935"
   style="fill:url(#radialGradient10815);stroke:#1f1a17;stroke-width:15;stroke-linecap:round;stroke-linejoin:round;stroke-miterlimit:4;stroke-dasharray:none" /><g
   transform="translate(-10.71875,-68.46875)"
   id="g10864"><path
     d="m 583.826,319.535 43.5485,43.5485 c 5.8004,5.79922 15.2835,5.80394 21.0874,0 l 128.208,-128.212 c 5.80394,-5.79922 5.79922,-15.2906 0.005,-21.0862 l -43.5508,-43.5449 c -5.79331,-5.79449 -15.2917,-5.79449 -21.0862,0 l -128.21,128.21 c -5.79567,5.79449 -5.8004,15.287 -10e-4,21.0862 l 0,-0.001 -4.4e-4,-4.2e-4 z"
     id="path2937"
     style="fill:url(#linearGradient2959);stroke:#1f1a17;stroke-width:15;stroke-linecap:round;stroke-linejoin:bevel;stroke-miterlimit:4;stroke-opacity:1;stroke-dasharray:none;marker-start:none" /><path
     d="m 305.358,685.108 -43.5508,-43.552 c -5.80158,-5.79567 -15.2858,-5.8004 -21.0886,10e-4 l -128.208,128.212 c -5.80276,5.79685 -5.79804,15.2894 -0.005,21.0862 l 43.552,43.5449 c 5.79331,5.79449 15.2917,5.79449 21.0839,0.001 l 128.211,-128.21 c 5.79449,-5.79685 5.8004,-15.2894 0.005,-21.0851 l 0,10e-4 5e-4,4.6e-4 z"
     id="path2939"
     style="fill:url(#linearGradient2956);stroke:#1f1a17;stroke-width:15;stroke-linecap:round;stroke-linejoin:bevel;stroke-miterlimit:4;stroke-dasharray:none" /><path
     d="m 627.375,641.556 -43.5496,43.5485 c -5.79685,5.79922 -5.8004,15.2835 0.001,21.0874 l 128.212,128.208 c 5.79922,5.80276 15.2906,5.79804 21.0851,0.004 l 43.5485,-43.5496 c 5.79213,-5.79331 5.79331,-15.2906 0,-21.0862 l -128.211,-128.21 c -5.79449,-5.79567 -15.287,-5.8004 -21.0862,-10e-4 l 0,0 2e-5,-4.6e-4 z"
     id="path2941"
     style="fill:url(#linearGradient2953);stroke:#1f1a17;stroke-width:15;stroke-linecap:round;stroke-linejoin:bevel;stroke-miterlimit:4;stroke-dasharray:none" /><path
     d="m 261.805,363.083 43.5496,-43.5485 c 5.79685,-5.79922 5.80158,-15.2847 -0.001,-21.0862 l -128.212,-128.209 c -5.79685,-5.80276 -15.2894,-5.79922 -21.0862,-0.006 l -43.5449,43.552 c -5.79449,5.79449 -5.79567,15.2917 0,21.0862 l 128.21,128.211 c 5.79567,5.79449 15.287,5.80158 21.0862,0 l -10e-4,0 -3.4e-4,4.1e-4 z"
     id="path2943"
     style="fill:url(#linearGradient2950);stroke:#1f1a17;stroke-width:15;stroke-linecap:round;stroke-linejoin:bevel;stroke-miterlimit:4;stroke-dasharray:none" /></g>
</svg>