<?xml version="1.0" encoding="UTF-8" standalone="no"?>
<!-- Creator: CorelDRAW -->
<svg
   xmlns:dc="http://purl.org/dc/elements/1.1/"
   xmlns:cc="http://web.resource.org/cc/"
   xmlns:rdf="http://www.w3.org/1999/02/22-rdf-syntax-ns#"
   xmlns:svg="http://www.w3.org/2000/svg"
   xmlns="http://www.w3.org/2000/svg"
   xmlns:xlink="http://www.w3.org/1999/xlink"
   xmlns:sodipodi="http://sodipodi.sourceforge.net/DTD/sodipodi-0.dtd"
   xmlns:inkscape="http://www.inkscape.org/namespaces/inkscape"
   xml:space="preserve"
   width="1000px"
   height="1000px"
   shape-rendering="geometricPrecision"
   text-rendering="geometricPrecision"
   image-rendering="optimizeQuality"
   fill-rule="evenodd"
   clip-rule="evenodd"
   viewBox="0 0 1000 1000"
   id="svg2888"
   sodipodi:version="0.32"
   inkscape:version="0.45.1"
   sodipodi:docname="Graphic1.svg"
   inkscape:output_extension="org.inkscape.output.svg.inkscape"
   sodipodi:docbase="D:\Temp"><metadata
   id="metadata2946"><rdf:RDF><cc:Work
       rdf:about=""><dc:format>image/svg+xml</dc:format><dc:type
         rdf:resource="http://purl.org/dc/dcmitype/StillImage" /></cc:Work></rdf:RDF></metadata><sodipodi:namedview
   inkscape:window-height="840"
   inkscape:window-width="1440"
   inkscape:pageshadow="2"
   inkscape:pageopacity="0.0"
   guidetolerance="10.0"
   gridtolerance="10.0"
   objecttolerance="10.0"
   borderopacity="1.0"
   bordercolor="#666666"
   pagecolor="#ffffff"
   id="base"
   inkscape:zoom="0.53315851"
   inkscape:cx="738.09306"
   inkscape:cy="520.29974"
   inkscape:window-x="-4"
   inkscape:window-y="-4"
   inkscape:current-layer="svg2888" />
 <defs
   id="defs2890"><linearGradient
   id="linearGradient10797"><stop
     style="stop-color:#ffffff;stop-opacity:1;"
     offset="0"
     id="stop10799" /><stop
     style="stop-color:#ffffff;stop-opacity:0;"
     offset="1"
     id="stop10801" /></linearGradient>
   <radialGradient
   id="id0"
   gradientUnits="userSpaceOnUse"
   cx="444.589"
   cy="502.321"
   r="1063.56"
   fx="444.589"
   fy="502.321">
    <stop
   offset="0"
   stop-color="#DA251D"
   id="stop2893" />
    <stop
   offset="0.278431"
   stop-color="#DA251D"
   id="stop2895" />
    <stop
   offset="0.568627"
   stop-color="#E7785F"
   id="stop2897" />
    <stop
   offset="1"
   stop-color="#DA251D"
   id="stop2899" />
    <stop
   offset="1"
   stop-color="#DA251D"
   id="stop2901" />
   </radialGradient>
   <linearGradient
   id="id1"
   gradientUnits="userSpaceOnUse"
   x1="618.768"
   y1="157.482"
   x2="741.732"
   y2="375.85">
    <stop
   offset="0"
   stop-color="white"
   id="stop2904" />
    <stop
   offset="0.541176"
   stop-color="#DEDEDD"
   id="stop2906" />
    <stop
   offset="1"
   stop-color="#DEDEDD"
   id="stop2908" />
   </linearGradient>
   <linearGradient
   id="id2"
   gradientUnits="userSpaceOnUse"
   x1="271.338"
   y1="846.924"
   x2="146.524"
   y2="629.026">
    <stop
   offset="0"
   stop-color="white"
   id="stop2911" />
    <stop
   offset="0.541176"
   stop-color="#DEDEDD"
   id="stop2913" />
    <stop
   offset="1"
   stop-color="#DEDEDD"
   id="stop2915" />
   </linearGradient>
   <linearGradient
   id="id3"
   gradientUnits="userSpaceOnUse"
   x1="789.194"
   y1="675.572"
   x2="571.296"
   y2="800.388">
    <stop
   offset="0"
   stop-color="white"
   id="stop2918" />
    <stop
   offset="0.541176"
   stop-color="#DEDEDD"
   id="stop2920" />
    <stop
   offset="1"
   stop-color="#DEDEDD"
   id="stop2922" />
   </linearGradient>
   <linearGradient
   id="id4"
   gradientUnits="userSpaceOnUse"
   x1="99.9851"
   y1="329.07"
   x2="317.886"
   y2="204.252">
    <stop
   offset="0"
   stop-color="white"
   id="stop2925" />
    <stop
   offset="0.541176"
   stop-color="#DEDEDD"
   id="stop2927" />
    <stop
   offset="1"
   stop-color="#DEDEDD"
   id="stop2929" />
   </linearGradient>
 
  <metadata
   id="CorelCorpID_0Corel-Layer" />
  
  
  
  
  
  
 <linearGradient
   inkscape:collect="always"
   xlink:href="#id4"
   id="linearGradient2950"
   gradientUnits="userSpaceOnUse"
   x1="99.9851"
   y1="329.07"
   x2="317.886"
   y2="204.252" /><linearGradient
   inkscape:collect="always"
   xlink:href="#id3"
   id="linearGradient2953"
   gradientUnits="userSpaceOnUse"
   x1="789.194"
   y1="675.572"
   x2="571.296"
   y2="800.388" /><linearGradient
   inkscape:collect="always"
   xlink:href="#id2"
   id="linearGradient2956"
   gradientUnits="userSpaceOnUse"
   x1="271.338"
   y1="846.924"
   x2="146.524"
   y2="629.026" /><linearGradient
   inkscape:collect="always"
   xlink:href="#id1"
   id="linearGradient2959"
   gradientUnits="userSpaceOnUse"
   x1="618.768"
   y1="157.482"
   x2="741.732"
   y2="375.85" /><radialGradient
   inkscape:collect="always"
   xlink:href="#id0"
   id="radialGradient10815"
   gradientUnits="userSpaceOnUse"
   cx="444.589"
   cy="502.321"
   fx="444.589"
   fy="502.321"
   r="1063.56" /></defs>
 <path
   style="fill:#000000;fill-opacity:0.50196081;stroke:none;stroke-width:15;stroke-linecap:round;stroke-linejoin:round;stroke-miterlimit:4;stroke-dasharray:none;fill-rule:evenodd"
   d="M 612.75 535.5 C 511.49398 535.5 411.5439 551.80249 326.8125 579 L 326.78125 578.96875 C 322.12449 576.29309 312.65377 576.29742 305.71875 578.96875 L 253.59375 599.03125 C 246.66081 601.70313 244.81153 606.10938 249.46875 608.78125 L 249.5 608.78125 C 176.13594 642.50855 122.52055 685.40019 102.625 732.09375 C 82.733707 778.77733 99.8039 821.65079 144.40625 855.375 L 144.375 855.40625 C 137.43331 858.07923 135.56434 862.45206 140.21875 865.125 L 175.21875 885.21875 C 179.87361 887.89062 189.38209 887.89007 196.3125 885.21875 L 196.375 885.1875 C 257.92793 912.37855 343.97676 928.68751 445.21875 928.6875 C 546.47477 928.6875 646.42483 912.38507 731.15625 885.1875 L 731.1875 885.21875 C 735.84666 887.89444 745.3483 887.89062 752.28125 885.21875 L 804.375 865.125 C 811.30537 862.45365 813.18589 858.07863 808.53125 855.40625 L 808.5 855.375 C 881.84477 821.65029 935.45165 778.77911 955.34375 732.09375 C 975.23239 685.41632 958.17942 642.53366 913.59375 608.8125 L 913.625 608.78125 C 920.56833 606.10722 922.43708 601.70364 917.78125 599.03125 L 882.78125 578.96875 C 878.12637 576.29686 868.62045 576.29688 861.6875 578.96875 L 861.625 579 C 800.07336 551.80301 714.00673 535.5 612.75 535.5 z M 577.625 617.28125 C 629.95304 617.28124 675.40752 624.68313 710.21875 637.34375 L 708.28125 638.09375 C 701.34712 640.76562 699.49641 645.13846 704.15625 647.8125 L 739.125 667.875 C 743.78602 670.54905 753.27454 670.55122 760.21875 667.875 L 762.4375 667.03125 C 782.61994 685.71529 789.48319 708.38707 779.0625 732.84375 C 768.81069 756.90404 743.30081 779.27024 708.09375 797.78125 L 705.5 796.28125 C 700.84421 793.60885 691.37608 793.6072 684.4375 796.28125 L 632.3125 816.375 C 625.37627 819.04905 623.52622 823.41754 628.1875 826.09375 L 631.03125 827.71875 C 584.88798 840.76112 532.30408 848.4375 479.125 848.4375 C 426.08665 848.4375 380.14617 840.82314 345.15625 827.84375 L 349.6875 826.09375 C 356.62091 823.42077 358.50074 819.04743 353.84375 816.375 L 318.84375 796.28125 C 314.18087 793.60883 304.72389 793.60611 297.78125 796.28125 L 293.5 797.9375 C 273.94268 779.39576 267.43779 756.9725 277.71875 732.84375 C 288.16774 708.32065 314.46154 685.58495 350.71875 666.875 L 352.46875 667.875 C 357.12596 670.54688 366.62345 670.55014 373.5625 667.875 L 425.65625 647.8125 C 432.59247 645.13846 434.47544 640.76886 429.8125 638.09375 L 428.34375 637.25 C 473.84811 624.65928 525.44846 617.28125 577.625 617.28125 z "
   id="path10860" /><path
   style="fill:url(#radialGradient10815);stroke:#1f1a17;stroke-width:15;stroke-linecap:round;stroke-linejoin:round;stroke-miterlimit:4;stroke-dasharray:none"
   d="M 444.59375 75.96875 C 209.16175 75.96875 18.21875 266.88049 18.21875 502.3125 C 18.21875 737.7425 209.16276 928.68753 444.59375 928.6875 C 680.02575 928.6875 870.93752 737.74349 870.9375 502.3125 C 870.9375 266.8815 680.02576 75.96875 444.59375 75.96875 z M 444.3125 253.3125 C 582.67856 253.3125 694.96875 365.6027 694.96875 503.96875 C 694.96875 642.3348 582.67855 754.65625 444.3125 754.65625 C 305.94647 754.65627 193.625 642.3348 193.625 503.96875 C 193.625 365.6027 305.94645 253.3125 444.3125 253.3125 z "
   id="path2935" /><g
   id="g10864"><path
     id="path2937"
     d="M 583.826,319.535 L 627.3745,363.0835 C 633.1749,368.88272 642.658,368.88744 648.4619,363.0835 L 776.6699,234.8715 C 782.47384,229.07228 782.46912,219.5809 776.67462,213.7853 L 733.12382,170.2404 C 727.33051,164.44591 717.83212,164.44591 712.03762,170.2404 L 583.82762,298.4504 C 578.03195,304.24489 578.02722,313.7374 583.82644,319.5366 L 583.82644,319.53542 L 583.826,319.535 z "
     style="fill:url(#linearGradient2959);stroke:#1f1a17;stroke-width:15;stroke-linecap:round;stroke-linejoin:bevel;stroke-miterlimit:4;stroke-dasharray:none;marker-start:none;opacity:1;stroke-opacity:1" /><path
     d="M 305.358,685.108 L 261.8072,641.556 C 256.00562,635.76033 246.5214,635.7556 240.7186,641.55718 L 112.5106,769.76918 C 106.70784,775.56603 106.71256,785.05858 112.50588,790.85538 L 156.05788,834.40028 C 161.85119,840.19477 171.34958,840.19477 177.14178,834.40146 L 305.35278,706.19146 C 311.14727,700.39461 311.15318,690.90206 305.3575,685.10636 L 305.3575,685.10754 L 305.358,685.108 z "
     id="path2939"
     style="fill:url(#linearGradient2956);stroke:#1f1a17;stroke-width:15;stroke-linecap:round;stroke-linejoin:bevel;stroke-miterlimit:4;stroke-dasharray:none" /><path
     d="M 627.375,641.556 L 583.8254,685.1045 C 578.02855,690.90372 578.025,700.388 583.82658,706.1919 L 712.03858,834.3999 C 717.8378,840.20266 727.32918,840.19794 733.12368,834.40344 L 776.67218,790.85384 C 782.46431,785.06053 782.46549,775.56324 776.67218,769.76764 L 648.46118,641.55764 C 642.66669,635.76197 633.17418,635.75724 627.37498,641.55646 L 627.37498,641.55646 L 627.375,641.556 z "
     id="path2941"
     style="fill:url(#linearGradient2953);stroke:#1f1a17;stroke-width:15;stroke-linecap:round;stroke-linejoin:bevel;stroke-miterlimit:4;stroke-dasharray:none" /><path
     d="M 261.805,363.083 L 305.3546,319.5345 C 311.15145,313.73528 311.15618,304.2498 305.35342,298.4483 L 177.14142,170.2393 C 171.34457,164.43654 161.85202,164.44008 156.05522,170.23339 L 112.51032,213.78539 C 106.71583,219.57988 106.71465,229.07709 112.51032,234.87159 L 240.72032,363.08259 C 246.51599,368.87708 256.00732,368.88417 261.80652,363.08259 L 261.80534,363.08259 L 261.805,363.083 z "
     id="path2943"
     style="fill:url(#linearGradient2950);stroke:#1f1a17;stroke-width:15;stroke-linecap:round;stroke-linejoin:bevel;stroke-miterlimit:4;stroke-dasharray:none" /></g>
</svg>